# xmcd
# 
# Track frame offsets:
#     183
#     31595
#     50945
#     69783
#     79633
#     98558
#     111083
#     125773
#     146300
#     166863
#     182790
#     206245
#     224823
#     245298
#     266308
# 
# Disc length: 3658
# 
# Revision: 3
# Processed by: cddbd v1.5.2PL0 Copyright (c) Steve Scherf et al.
# Submitted via: fre:ac v1.0.27
# 
DISCID=d10e480f
DTITLE=Christophe (Daniel Bevilacqua) - Succès fous - CD2
DYEAR=1990
DGENRE=
TTITLE0=Les paradis perdus
TTITLE1=Le temps de vivre
TTITLE2=Les mots bleus
TTITLE3=Mama
TTITLE4=Daisy
TTITLE5=Une autre vie
TTITLE6=Pas vu, pas pris
TTITLE7=Drôle de vie
TTITLE8=Dernier baiser
TTITLE9=Succès fou
TTITLE10=Chique chique
TTITLE11=J'l'ai pas touchée
TTITLE12=Voix sans issue
TTITLE13=Ne raccroche pas
TTITLE14=Ferber endormi
EXTD=
EXTT0=
EXTT1=
EXTT2=
EXTT3=
EXTT4=
EXTT5=
EXTT6=
EXTT7=
EXTT8=
EXTT9=
EXTT10=
EXTT11=
EXTT12=
EXTT13=
EXTT14=
PLAYORDER=
